<svg viewBox="0 0 400 300" xmlns="http://www.w3.org/2000/svg">
<!-- PROVISORIO: arte temporaria do Cantico Angelical (MVP de 24/09/2026). A definitiva vem com NOME NOVO de arquivo: assets/ fica guardado no celular por um ano. -->
<defs>
<linearGradient id="ceu" x1="0" y1="0" x2="0.3" y2="1">
<stop offset="0%" stop-color="#120a06"/>
<stop offset="60%" stop-color="#35200f"/>
<stop offset="100%" stop-color="#6e4420"/>
</linearGradient>
<radialGradient id="luz" cx="50%" cy="37%" r="55%">
<stop offset="0%" stop-color="#fbe7b0" stop-opacity="0.85"/>
<stop offset="100%" stop-color="#fbe7b0" stop-opacity="0"/>
</radialGradient>
</defs>
<rect width="400" height="300" fill="url(#ceu)"/>
<circle cx="200" cy="112" r="165" fill="url(#luz)"/>
<circle cx="200" cy="112" r="92" fill="none" stroke="#f7e3b5" stroke-width="1.5" opacity="0.35"/>
<circle cx="200" cy="112" r="120" fill="none" stroke="#f7e3b5" stroke-width="1" opacity="0.2"/>
<g fill="#ffffff">
<circle cx="40" cy="40" r="2" opacity="0.85"/>
<circle cx="355" cy="55" r="1.6" opacity="0.7"/>
<circle cx="65" cy="225" r="2" opacity="0.6"/>
<circle cx="335" cy="245" r="1.8" opacity="0.75"/>
<circle cx="28" cy="150" r="1.5" opacity="0.6"/>
<circle cx="372" cy="150" r="2" opacity="0.7"/>
<circle cx="252" cy="30" r="1.3" opacity="0.5"/>
<circle cx="150" cy="268" r="1.4" opacity="0.5"/>
</g>
<g transform="translate(200 72) scale(0.72) translate(-200 -112)">
<rect x="186" y="98" width="28" height="72" rx="4" fill="#fff6dc"/>
<path d="M200 56 C213 71 213 84 200 93 C187 84 187 71 200 56 Z" fill="#ffd98a"/>
<line x1="200" y1="92" x2="200" y2="99" stroke="#3a2714" stroke-width="2"/>
</g>
</svg>
