<svg viewBox="0 0 400 300" xmlns="http://www.w3.org/2000/svg">
<!-- PROVISORIO: arte temporaria do Cantico Angelical (MVP de 24/09/2026). A definitiva vem com NOME NOVO de arquivo: assets/ fica guardado no celular por um ano. -->
<defs>
<linearGradient id="ceu" x1="0" y1="0" x2="0.3" y2="1">
<stop offset="0%" stop-color="#0f0b10"/>
<stop offset="60%" stop-color="#2e2130"/>
<stop offset="100%" stop-color="#5e4452"/>
</linearGradient>
<radialGradient id="luz" cx="50%" cy="37%" r="55%">
<stop offset="0%" stop-color="#fbe7b0" stop-opacity="0.85"/>
<stop offset="100%" stop-color="#fbe7b0" stop-opacity="0"/>
</radialGradient>
</defs>
<rect width="400" height="300" fill="url(#ceu)"/>
<circle cx="200" cy="112" r="165" fill="url(#luz)"/>
<circle cx="200" cy="112" r="92" fill="none" stroke="#f7e3b5" stroke-width="1.5" opacity="0.35"/>
<circle cx="200" cy="112" r="120" fill="none" stroke="#f7e3b5" stroke-width="1" opacity="0.2"/>
<g fill="#ffffff">
<circle cx="40" cy="40" r="2" opacity="0.85"/>
<circle cx="355" cy="55" r="1.6" opacity="0.7"/>
<circle cx="65" cy="225" r="2" opacity="0.6"/>
<circle cx="335" cy="245" r="1.8" opacity="0.75"/>
<circle cx="28" cy="150" r="1.5" opacity="0.6"/>
<circle cx="372" cy="150" r="2" opacity="0.7"/>
<circle cx="252" cy="30" r="1.3" opacity="0.5"/>
<circle cx="150" cy="268" r="1.4" opacity="0.5"/>
</g>
<g transform="translate(200 72) scale(0.72) translate(-200 -112)">
<path d="M234 50 C178 68 160 118 168 160 C206 148 238 104 234 50 Z" fill="#fff6dc"/>
<path d="M168 160 C184 126 204 94 228 60" stroke="#c9a45c" stroke-width="2.5" fill="none" stroke-linecap="round"/>
<line x1="168" y1="160" x2="157" y2="175" stroke="#fff6dc" stroke-width="3" stroke-linecap="round"/>
</g>
</svg>
